<svg xmlns="http://www.w3.org/2000/svg" width="38.817" height="38.817" viewBox="0 0 38.817 38.817">
  <path id="Path_1" data-name="Path 1" d="M37.431,19.411H29.113a1.386,1.386,0,0,0-1.345,1.049L25.457,29.7,22.171,1.229a1.386,1.386,0,0,0-2.735-.118L15.043,23.085,12.428,13.5A1.386,1.386,0,0,0,9.8,13.35L7.379,19.411H1.386a1.386,1.386,0,1,0,0,2.773H8.318a1.386,1.386,0,0,0,1.288-.872l1.235-3.09L13.912,29.48A1.386,1.386,0,0,0,15.25,30.5H15.3a1.386,1.386,0,0,0,1.311-1.109l3.818-19.1,3.151,27.3a1.386,1.386,0,0,0,1.287,1.226l.09,0A1.386,1.386,0,0,0,26.3,37.769l3.9-15.585h7.235a1.386,1.386,0,1,0,0-2.773Z" transform="translate(0 -0.003)" fill="#e94560"/>
</svg>
